<svg width="47" height="51" viewBox="0 0 47 51" fill="none" xmlns="http://www.w3.org/2000/svg">
<path d="M23.5 41.0338H9.41954C7.20662 41.0338 5.38538 39.0575 5.38538 36.6563V14.8112C5.38538 12.41 7.20662 10.4337 9.41954 10.4337H11.2016" stroke="#FCF7F4" stroke-width="1.5" stroke-linecap="round" stroke-linejoin="round"/>
<path d="M23.5 10.4549V41.0337C22.8929 39.9712 21.0912 37.1449 17.6054 35.5937C16.0191 34.8924 14.5112 34.6588 13.3362 34.595C12.2591 34.5525 11.4366 33.575 11.4366 32.4275V8.22368C11.4366 6.99118 12.3571 5.9925 13.4929 6.035C14.6092 6.0775 15.9408 6.26866 17.3704 6.73616C20.3666 7.69241 22.4229 9.41366 23.5 10.4549Z" stroke="#FCF7F4" stroke-width="1.5" stroke-linecap="round" stroke-linejoin="round"/>
<path d="M41.6146 14.8112V36.6563C41.6146 39.0576 39.7933 41.0338 37.5804 41.0338H23.5V10.455H37.5804C39.7933 10.455 41.6146 12.41 41.6146 14.8112Z" stroke="#FCF7F4" stroke-width="1.5" stroke-linecap="round" stroke-linejoin="round"/>
<path d="M29.5121 16.9362H35.6025" stroke="#FCF7F4" stroke-width="1.5" stroke-linecap="round" stroke-linejoin="round"/>
<path d="M29.5121 25.7337H35.6025" stroke="#FCF7F4" stroke-width="1.5" stroke-linecap="round" stroke-linejoin="round"/>
<path d="M29.5121 34.5525H35.6025" stroke="#FCF7F4" stroke-width="1.5" stroke-linecap="round" stroke-linejoin="round"/>
</svg>
