<svg width="32" height="33" viewBox="0 0 32 33" fill="none" xmlns="http://www.w3.org/2000/svg">
<path d="M15.72 16.335C15 16.335 14.2667 16.1975 13.6933 15.9363L5.82666 12.3338C3.82666 11.4125 3.53333 10.175 3.53333 9.50125C3.53333 8.8275 3.82666 7.59 5.82666 6.66875L13.6933 3.06625C14.8533 2.53 16.6 2.53 17.76 3.06625L25.64 6.66875C27.6267 7.57625 27.9333 8.8275 27.9333 9.50125C27.9333 10.175 27.64 11.4125 25.64 12.3338L17.76 15.9363C17.1733 16.2113 16.4533 16.335 15.72 16.335ZM15.72 4.73C15.2667 4.73 14.8267 4.79875 14.5067 4.95L6.63999 8.5525C5.82666 8.9375 5.53333 9.3225 5.53333 9.50125C5.53333 9.68 5.82666 10.0788 6.62666 10.45L14.4933 14.0525C15.1333 14.3413 16.2933 14.3413 16.9333 14.0525L24.8133 10.45C25.6267 10.0788 25.92 9.68 25.92 9.50125C25.92 9.3225 25.6267 8.92375 24.8133 8.5525L16.9467 4.95C16.6267 4.8125 16.1733 4.73 15.72 4.73Z" fill="#75BD3C"/>
<path d="M16 23.4988C15.4933 23.4988 14.9867 23.3888 14.5067 23.1688L5.45333 19.0163C4.08 18.3975 3 16.6788 3 15.125C3 14.5613 3.45333 14.0938 4 14.0938C4.54667 14.0938 5 14.5613 5 15.125C5 15.8813 5.6 16.83 6.26667 17.1463L15.32 21.2988C15.7467 21.4913 16.24 21.4913 16.68 21.2988L25.7333 17.1463C26.4 16.8438 27 15.8813 27 15.125C27 14.5613 27.4533 14.0938 28 14.0938C28.5467 14.0938 29 14.5613 29 15.125C29 16.6788 27.92 18.3975 26.5467 19.03L17.4933 23.1825C17.0133 23.3888 16.5067 23.4988 16 23.4988Z" fill="#75BD3C"/>
<path d="M16 30.3738C15.4933 30.3738 14.9867 30.2638 14.5067 30.0438L5.45333 25.8913C3.96 25.2038 3 23.6775 3 21.9863C3 21.4225 3.45333 20.955 4 20.955C4.54667 20.955 5 21.4363 5 22C5 22.8663 5.49333 23.6638 6.26667 24.0213L15.32 28.1738C15.7467 28.3663 16.24 28.3663 16.68 28.1738L25.7333 24.0213C26.5067 23.6638 27 22.88 27 22C27 21.4363 27.4533 20.9688 28 20.9688C28.5467 20.9688 29 21.4363 29 22C29 23.6913 28.04 25.2175 26.5467 25.905L17.4933 30.0575C17.0133 30.2638 16.5067 30.3738 16 30.3738Z" fill="#75BD3C"/>
</svg>
